{"title":"Girl.Walks.Into.A.Bar.2011.HDrip.XVID.AC3.HQ.Hive-CM8","uid":6734911,"size":1411582668,"categoryP":"video","categoryS":"movies","magnet":"?xt=urn:btih:c863086537b327c99e2fa0705b1ad835af0bb50b&amp;dn=Girl.Walks.Into.A.Bar.2011.HDrip.XVID.AC3.HQ.Hive-CM8&amp;tr=udp%3A%2F%2Ftracker.openbittorrent.com%3A80&amp;tr=udp%3A%2F%2Fopen.demonii.com%3A1337&amp;tr=udp%3A%2F%2Ftracker.coppersurfer.tk%3A6969&amp;tr=udp%3A%2F%2Fexodus.desync.com%3A6969","seeders":0,"leechers":0,"uploader":"sceneline","files":5,"time":1318292847,"description":"- &lt;a href=&quot;\nhttp://www.Speed.Cd&quot; rel=&quot;nofollow&quot; target=&quot;_NEW&quot;&gt;\nhttp://www.Speed.Cd&lt;/a&gt; \n       &lt;a href=&quot;\nhttp://www.Speed.Cd&quot; rel=&quot;nofollow&quot; target=&quot;_NEW&quot;&gt;\nhttp://www.Speed.Cd&lt;/a&gt;      fast  and The Hottest Private Tracker on the net\n\n(((--Submit for invite!!--)))\n\nPlease Seed back to make the speed Faster!!!\n\n------------------nfo--------------------------\n-[IMG]http://img13.imageshack.us/img13/2076/1308820471.jpg[/IMG]\n\n\n[color=blue][size=5][b]Girl.Walks.Into.A.Bar.2011.HDrip.XVID.AC3.HQ.Hive-CM8[/b][/size][/color]\n\n\n[b]Thx Hive\n\nCM8 Doing It Right The First Time :D\n\n\nSource: 1080p Web HD-Stream\n\nEncode:\nwas a lot to fix on that stream, it was rather dark, too much red, strange colouring, framerate wrong,\naudio problem at a spot, and that aac audio that likes to get async when converting to avi. \nWell, fixed all that to my HQ-Standards and added sharpness too.\ngot very nice in the end.\nenjoy\n\nbtw:\nhas a great cast of many well known actors\n\nVideo: 720x304 @bitrate 2000 2pass\nAudio: English AC3 2.0 Stereo\nSample: Yes, included[/b]\n &lt;a href=&quot;\nhttp://www.imdb.com/title/tt1682246/&quot; rel=&quot;nofollow&quot; target=&quot;_NEW&quot;&gt;\nhttp://www.imdb.com/title/tt1682246/&lt;/a&gt;\n\n\nGeneral\nComplete name                    : Girl.Walks.Into.A.Bar.2011.HDrip.XVID.AC3.HQ.Hive-CM8.avi\nFormat                           : AVI\nFormat/Info                      : Audio Video Interleave\nFile size                        : 1.30 GiB\nDuration                         : 1h 19mn\nOverall bit rate                 : 2 350 Kbps\nWriting application              : Nandub v1.0rc2\nWriting library                  : Nandub build 1853/release\n\nVideo\nID                               : 0\nFormat                           : MPEG-4 Visual\nFormat profile                   : Advanced Simple@L5\nFormat settings, BVOP            : 2\nFormat settings, QPel            : Yes\nFormat settings, GMC             : No warppoints\nFormat settings, Matrix          : Default (H.263)\nMuxing mode                      : Packed bitstream\nCodec ID                         : XVID\nCodec ID/Hint                    : XviD\nDuration                         : 1h 19mn\nBit rate                         : 2 085 Kbps\nWidth                            : 720 pixels\nHeight                           : 304 pixels\nDisplay aspect ratio             : 2.35:1\nFrame rate                       : 23.976 fps\nColor space                      : YUV\nChroma subsampling               : 4:2:0\nBit depth                        : 8 bits\nScan type                        : Progressive\nCompression mode                 : Lossy\nBits/(Pixel*Frame)               : 0.397\nStream size                      : 1.15 GiB (89%)\nWriting library                  : XviD 1.2.1 (UTC 2008-12-04)\n\nAudio\nID                               : 1\nFormat                           : AC-3\nFormat/Info                      : Audio Coding 3\nMode extension                   : CM (complete main)\nCodec ID                         : 2000\nDuration                         : 1h 19mn\nBit rate mode                    : Constant\nBit rate                         : 256 Kbps\nChannel(s)                       : 2 channels\nChannel positions                : Front: L R\nSampling rate                    : 48.0 KHz\nBit depth                        : 16 bits\nCompression mode                 : Lossy\nStream size                      : 145 MiB (11%)\nAlignment                        : Split accross interleaves\nInterleave, duration             : 42 ms (1.00 video frame)\nInterleave, preload duration     : 500 ms\n\n\nPlot:\nA sharp-witted comedy that follows a group of apparent strangers in interlocking stories\nhappening in ten different bars during the course of one evening throughout Los Angeles.\n\n\nCast:\nCarla Gugino        ...    Francine Driver\nGil Bellows         ...    Emmit\nXander Berkeley     ...    Moe\nAlexis Bledel       ...    Kim\nEmmanuelle Chriqui  ...    Teresa\nRosario Dawson      ...    June\nDanny DeVito        ...    Aldo\nRobert Forster      ...    Dodge\nJosh Hartnett       ...    Sam Salazar\nAmber Valletta      ...    Camilla\n\n\n[img]http://img31.imageshack.us/img31/3134/60280090.png[/img]\n[img]http://img197.imageshack.us/img197/5020/gigic.png[/img]\n[img]http://img855.imageshack.us/img855/2258/gigiggiiggiiggiigi.png[/img]\n[img]http://img809.imageshack.us/img809/8625/gigiggiigi.png[/img]\n[img]http://img199.imageshack.us/img199/16/gigigi.png[/img]\n[img]http://img830.imageshack.us/img830/2854/gigigigi.png[/img]\n[img]http://img543.imageshack.us/img543/7448/gigiggiigiggiigi.png[/img]\n[img]http://img443.imageshack.us/img443/1264/gigigiggiiggiiggiigilp.png[/img]\n[img]http://img809.imageshack.us/img809/5492/gigigiggiigi.png[/img]\n[img]http://img267.imageshack.us/img267/9634/gigigigiggiiggiiggiigi.png[/img]\n[img]http://img829.imageshack.us/img829/7341/gigigigiggiigi.png[/img]\n\n\n\nGreetz\n\nViSiON,SiC,SANTi,3LT0N,YanKeeS,MAGNET,THC,T0XiC,LKRG,FANTASIA-PLAY,FANTASIA-M,BHRG,FLAWL3SS,\nD2U,WBZ,NOVA,Vik,Rapeseed,SAFC,goldadvance,MEMORY100,scumbag,KaN1vE,Unevano,Pinnz,Wayne\nMr Hive,cedrict wink,and all P2P groups\nGreat Work Guys :D\n\nLOOKING FOR ANYTHING YOU WANT TO LOOK AND SOUND BETTER\n\n&lt;a class=&quot;__cf_email__&quot; href=&quot;/cdn-cgi/l/email-protection&quot; data-cfemail=&quot;22616f1a624a57514a4f434b4e0c414d4f&quot;&gt;[email&amp;#160;protected]&lt;/a&gt;&lt;script cf-hash='f9e31' type=&quot;text/javascript&quot;&gt;\n/* &lt;![CDATA[ */!function(){try{var t=&quot;currentScript&quot;in document?document.currentScript:function(){for(var t=document.getElementsByTagName(&quot;script&quot;),e=t.length;e--;)if(t[e].getAttribute(&quot;cf-hash&quot;))return t[e]}();if(t&amp;&amp;t.previousSibling){var e,r,n,i,c=t.previousSibling,a=c.getAttribute(&quot;data-cfemail&quot;);if(a){for(e=&quot;&quot;,r=parseInt(a.substr(0,2),16),n=2;a.length-n;n+=2)i=parseInt(a.substr(n,2),16)^r,e+=String.fromCharCode(i);e=document.createTextNode(e),c.parentNode.replaceChild(e,c)}}}catch(u){}}();/* ]]&gt; */&lt;/script&gt;","torrent":{"xt":"urn:btih:c863086537b327c99e2fa0705b1ad835af0bb50b","amp;dn":"Girl.Walks.Into.A.Bar.2011.HDrip.XVID.AC3.HQ.Hive-CM8","amp;tr":["udp%3A%2F%2Ftracker.openbittorrent.com%3A80","udp%3A%2F%2Fopen.demonii.com%3A1337","udp%3A%2F%2Ftracker.coppersurfer.tk%3A6969","udp%3A%2F%2Fexodus.desync.com%3A6969"],"infoHash":"c863086537b327c99e2fa0705b1ad835af0bb50b","infoHashBuffer":{"type":"Buffer","data":[200,99,8,101,55,179,39,201,158,47,160,112,91,26,216,53,175,11,181,11]},"announce":[],"urlList":[]}}